<?xml version="1.0" encoding="UTF-8" standalone="no"?>
<!-- Created with Inkscape (http://www.inkscape.org/) -->

<svg
   xmlns:dc="http://purl.org/dc/elements/1.1/"
   xmlns:cc="http://creativecommons.org/ns#"
   xmlns:rdf="http://www.w3.org/1999/02/22-rdf-syntax-ns#"
   xmlns:svg="http://www.w3.org/2000/svg"
   xmlns="http://www.w3.org/2000/svg"
   xmlns:sodipodi="http://sodipodi.sourceforge.net/DTD/sodipodi-0.dtd"
   xmlns:inkscape="http://www.inkscape.org/namespaces/inkscape"
   version="1.1"
   id="svg2"
   xml:space="preserve"
   width="246.5936"
   height="91.870934"
   viewBox="0 0 246.5936 91.870935"
   sodipodi:docname="logo.svg"
   inkscape:version="0.92.5 (2060ec1f9f, 2020-04-08)"><metadata
     id="metadata8"><rdf:RDF><cc:Work
         rdf:about=""><dc:format>image/svg+xml</dc:format><dc:type
           rdf:resource="http://purl.org/dc/dcmitype/StillImage" /><dc:title></dc:title></cc:Work></rdf:RDF></metadata><defs
     id="defs6"><clipPath
       clipPathUnits="userSpaceOnUse"
       id="clipPath18"><path
         d="M 0,141.732 H 240.945 V 0 H 0 Z"
         id="path16"
         inkscape:connector-curvature="0" /></clipPath></defs><sodipodi:namedview
     pagecolor="#ffffff"
     bordercolor="#666666"
     borderopacity="1"
     objecttolerance="10"
     gridtolerance="10"
     guidetolerance="10"
     inkscape:pageopacity="0"
     inkscape:pageshadow="2"
     inkscape:window-width="1856"
     inkscape:window-height="1016"
     id="namedview4"
     showgrid="false"
     inkscape:zoom="1.2488358"
     inkscape:cx="349.20563"
     inkscape:cy="94.487998"
     inkscape:window-x="64"
     inkscape:window-y="27"
     inkscape:window-maximized="1"
     inkscape:current-layer="g10" /><g
     id="g10"
     inkscape:groupmode="layer"
     inkscape:label="Logotipos"
     transform="matrix(1.3333333,0,0,-1.3333333,0,91.870934)"><g
       id="g12"
       transform="translate(-27.5139,-36.240398)"><g
         id="g14"
         clip-path="url(#clipPath18)"><g
           id="g20"
           transform="translate(76.5054,76.1556)"><path
             d="m 0,0 c 3.252,0 5.618,2.555 5.618,5.714 0,3.113 -2.07,5.761 -5.421,5.761 -2.858,0 -4.337,-2.137 -4.534,-2.695 V 1.348 C -4.337,1.348 -2.612,0 0,0 m -4.238,-16.583 c 0,-0.512 -0.345,-0.883 -1.035,-0.883 h -2.76 c -0.492,0 -0.936,0.418 -0.936,0.883 v 30.752 c 0,0.464 0.444,0.883 0.936,0.883 h 1.479 c 0.394,0 0.64,-0.186 0.837,-0.604 l 0.493,-1.208 c 0.345,0.325 2.366,2.276 6.013,2.276 5.42,0 9.412,-4.459 9.412,-9.802 0,-5.435 -4.238,-9.709 -9.61,-9.709 -2.562,0 -4.484,1.069 -4.829,1.255 z"
             style="fill:#242424;fill-opacity:1;fill-rule:nonzero;stroke:none"
             id="path22"
             inkscape:connector-curvature="0" /></g><g
           id="g24"
           transform="translate(102.0327,83.9603)"><path
             d="M 0,0 C -0.147,2.23 -2.119,4.134 -4.534,4.134 -7.195,4.134 -9.265,2.323 -9.561,0 Z m -4.484,7.711 c 5.125,0 9.067,-3.623 9.067,-8.594 0,-0.325 -0.049,-0.929 -0.098,-1.254 -0.049,-0.465 -0.444,-0.79 -0.887,-0.79 H -9.807 c 0.148,-2.508 2.464,-4.97 5.667,-4.97 1.775,0 3.401,0.743 4.387,1.347 0.591,0.325 0.936,0.511 1.33,0.046 l 1.38,-1.765 C 3.302,-8.641 3.45,-9.012 2.858,-9.477 1.429,-10.638 -1.133,-11.8 -4.435,-11.8 c -5.963,0 -9.906,4.414 -9.906,9.756 0,5.25 3.943,9.755 9.857,9.755"
             style="fill:#242424;fill-opacity:1;fill-rule:nonzero;stroke:none"
             id="path26"
             inkscape:connector-curvature="0" /></g><g
           id="g28"
           transform="translate(117.7534,76.1556)"><path
             d="m 0,0 c 3.006,0 4.435,2.276 4.682,2.788 v 7.572 c 0,0 -1.725,1.115 -4.287,1.115 -3.302,0 -5.619,-2.556 -5.619,-5.714 C -5.224,2.648 -3.154,0 0,0 m -0.098,15.516 c 2.513,0 4.287,-0.883 4.73,-1.022 v 13.611 c 0,0.465 0.444,0.883 0.937,0.883 h 2.858 c 0.493,0 0.937,-0.418 0.937,-0.883 V -2.647 C 9.364,-3.112 8.92,-3.53 8.427,-3.53 H 6.949 c -0.444,0 -0.74,0.325 -0.887,0.79 l -0.395,1.347 c 0,0 -2.365,-2.602 -6.258,-2.602 -5.224,0 -9.216,4.413 -9.216,9.756 0,5.435 4.238,9.755 9.709,9.755"
             style="fill:#242424;fill-opacity:1;fill-rule:nonzero;stroke:none"
             id="path30"
             inkscape:connector-curvature="0" /></g><g
           id="g32"
           transform="translate(129.7783,90.3246)"><path
             d="m 0,0 c 0,0.464 0.443,0.883 0.937,0.883 h 1.428 c 0.345,0 0.739,-0.279 0.838,-0.651 l 0.542,-1.579 c 0.345,0.464 2.169,2.694 5.766,2.694 1.873,0 4.139,-0.464 3.597,-1.719 l -1.182,-2.276 c -0.246,-0.511 -0.739,-0.604 -1.183,-0.418 -0.296,0.139 -1.035,0.325 -1.676,0.325 -2.858,0 -4.238,-1.951 -4.434,-2.276 v -11.799 c 0,-0.79 -0.543,-0.883 -1.331,-0.883 H 0.937 C 0.443,-17.699 0,-17.281 0,-16.816 Z"
             style="fill:#242424;fill-opacity:1;fill-rule:nonzero;stroke:none"
             id="path34"
             inkscape:connector-curvature="0" /></g><g
           id="g36"
           transform="translate(151.9551,76.1556)"><path
             d="m 0,0 c 3.104,0 5.568,2.602 5.568,5.807 0,3.112 -2.464,5.668 -5.568,5.668 -3.104,0 -5.569,-2.556 -5.569,-5.668 C -5.569,2.602 -3.104,0 0,0 m 0,15.516 c 5.52,0 9.955,-4.459 9.955,-9.709 0,-5.342 -4.435,-9.802 -9.955,-9.802 -5.52,0 -9.955,4.46 -9.955,9.802 0,5.25 4.435,9.709 9.955,9.709"
             style="fill:#242424;fill-opacity:1;fill-rule:nonzero;stroke:none"
             id="path38"
             inkscape:connector-curvature="0" /></g><g
           id="g40"
           transform="translate(88.2471,50.7342)"><path
             d="m 0,0 1.035,1.812 c 0.197,0.371 0.739,0.51 1.232,0.232 0,0 2.168,-1.208 4.583,-1.208 1.478,0 2.415,0.558 2.415,1.579 0,1.255 -1.084,1.858 -3.795,3.02 -3.055,1.254 -5.618,3.019 -5.618,6.086 0,2.322 2.021,5.109 6.752,5.109 2.759,0 4.829,-0.836 5.814,-1.44 0.444,-0.278 0.69,-0.882 0.395,-1.347 l -0.887,-1.579 c -0.247,-0.418 -0.887,-0.558 -1.281,-0.372 0,0 -2.169,0.975 -4.041,0.975 -1.676,0 -2.218,-0.696 -2.218,-1.393 0,-1.207 1.232,-1.719 3.154,-2.508 3.597,-1.487 6.554,-2.927 6.554,-6.411 0,-2.88 -2.907,-5.436 -7.293,-5.436 -3.302,0 -5.47,1.115 -6.506,1.905 C 0,-0.79 -0.197,-0.372 0,0"
             style="fill:#fab516;fill-opacity:1;fill-rule:nonzero;stroke:none"
             id="path42"
             inkscape:connector-curvature="0" /></g><g
           id="g44"
           transform="translate(111.1128,51.1522)"><path
             d="M 0,0 C 1.972,0 3.844,1.394 4.436,2.322 V 5.296 C 4.14,5.481 2.76,6.039 0.986,6.039 -1.379,6.039 -3.006,4.878 -3.006,2.973 -3.006,1.301 -1.823,0 0,0 m 0.592,8.919 c 2.07,0 3.893,-0.558 3.893,-0.558 0.049,2.927 -0.542,4.088 -3.055,4.088 -2.267,0 -4.485,-0.557 -5.52,-0.836 -0.592,-0.139 -0.936,0.233 -1.084,0.743 l -0.394,1.719 c -0.148,0.605 0.196,0.93 0.64,1.07 0.345,0.138 3.154,1.067 6.801,1.067 6.308,0 6.899,-3.623 6.899,-8.269 v -9.894 c 0,-0.465 -0.443,-0.883 -0.936,-0.883 h -1.38 c -0.443,0 -0.641,0.186 -0.838,0.65 L 5.125,-0.93 c -1.083,-0.975 -3.006,-2.369 -6.061,-2.369 -3.696,0 -6.357,2.369 -6.357,6.226 0,3.39 2.858,5.992 7.885,5.992"
             style="fill:#fab516;fill-opacity:1;fill-rule:nonzero;stroke:none"
             id="path46"
             inkscape:connector-curvature="0" /></g><g
           id="g48"
           transform="translate(122.6445,66.0174)"><path
             d="m 0,0 c 0,0.465 0.443,0.883 0.937,0.883 h 1.428 c 0.395,0 0.691,-0.233 0.789,-0.558 l 0.591,-1.579 c 0.346,0.371 2.957,2.601 6.9,2.601 6.012,0 8.23,-3.995 8.23,-8.826 v -9.337 c 0,-0.465 -0.443,-0.883 -0.937,-0.883 H 15.13 c -0.543,0 -0.937,0.418 -0.937,0.883 v 9.522 c 0,2.974 -1.528,4.6 -4.09,4.6 -3.105,0 -5.224,-2.137 -5.47,-2.787 v -11.335 c 0,-0.605 -0.296,-0.883 -1.134,-0.883 H 0.937 C 0.443,-17.699 0,-17.281 0,-16.816 Z"
             style="fill:#fab516;fill-opacity:1;fill-rule:nonzero;stroke:none"
             id="path50"
             inkscape:connector-curvature="0" /></g><g
           id="g52"
           transform="translate(143.6387,57.5624)"><path
             d="m 0,0 c 0,5.481 4.879,9.802 10.349,9.802 3.006,0 5.322,-1.161 7.146,-3.298 C 17.84,6.086 17.741,5.528 17.298,5.203 L 15.671,3.81 c -0.591,-0.511 -0.936,-0.14 -1.33,0.185 -0.887,0.93 -2.317,1.766 -3.943,1.766 -3.203,0 -5.716,-2.555 -5.716,-5.714 0,-3.205 2.464,-5.761 5.667,-5.761 2.513,0 3.548,1.208 4.583,2.138 0.444,0.418 0.887,0.418 1.331,0.093 l 1.331,-1.023 c 0.492,-0.371 0.689,-0.836 0.344,-1.301 -1.577,-2.369 -4.238,-3.855 -7.589,-3.902 v -1.997 c 3.006,-0.372 4.977,-2.137 4.977,-4.785 0,-2.695 -2.266,-4.831 -5.175,-4.831 -1.477,0 -2.907,0.696 -3.745,1.626 -0.393,0.418 -0.344,0.928 0.05,1.254 l 0.838,0.65 c 0.345,0.232 0.838,0.232 1.084,-0.046 0.492,-0.512 1.231,-0.697 1.773,-0.697 1.134,0 1.923,0.883 1.923,1.951 0,1.626 -1.725,2.369 -3.844,2.602 -0.739,0.139 -0.837,0.65 -0.837,0.882 v 3.809 C 3.203,-8.176 0,-4.552 0,0"
             style="fill:#fab516;fill-opacity:1;fill-rule:nonzero;stroke:none"
             id="path54"
             inkscape:connector-curvature="0" /></g><g
           id="g56"
           transform="translate(170.3984,51.1522)"><path
             d="M 0,0 C 1.971,0 3.844,1.394 4.435,2.322 V 5.296 C 4.14,5.481 2.76,6.039 0.985,6.039 -1.38,6.039 -3.006,4.878 -3.006,2.973 -3.006,1.301 -1.823,0 0,0 m -5.717,21.274 c -0.493,0.279 -0.443,0.744 -0.296,1.069 0.444,0.836 1.922,3.902 4.83,3.902 2.859,0 3.794,-2.973 5.371,-2.973 1.134,0 1.529,1.161 2.021,1.858 0.296,0.465 0.641,0.743 1.232,0.418 C 7.835,25.27 8.427,25.037 8.723,24.666 8.969,24.294 8.821,23.922 8.574,23.411 8.082,22.389 6.652,19.927 3.942,19.927 c -2.513,0 -3.843,3.02 -5.273,3.02 -1.183,0 -1.823,-1.301 -2.119,-1.905 -0.246,-0.511 -0.492,-0.79 -1.133,-0.464 z M 0.591,8.919 c 2.07,0 3.893,-0.558 3.893,-0.558 0.049,2.927 -0.542,4.088 -3.055,4.088 -2.267,0 -4.485,-0.557 -5.52,-0.836 -0.591,-0.139 -0.936,0.233 -1.084,0.743 l -0.394,1.719 c -0.148,0.605 0.197,0.93 0.64,1.07 0.346,0.138 3.155,1.067 6.801,1.067 6.309,0 6.899,-3.623 6.899,-8.269 v -9.894 c 0,-0.465 -0.443,-0.883 -0.936,-0.883 H 6.456 c -0.444,0 -0.641,0.186 -0.838,0.65 L 5.125,-0.93 c -1.084,-0.975 -3.006,-2.369 -6.062,-2.369 -3.696,0 -6.357,2.369 -6.357,6.226 0,3.39 2.858,5.992 7.885,5.992"
             style="fill:#fab516;fill-opacity:1;fill-rule:nonzero;stroke:none"
             id="path58"
             inkscape:connector-curvature="0" /></g><g
           id="g60"
           transform="translate(191.2441,51.8485)"><path
             d="M 0,0 C 3.104,0 5.569,2.602 5.569,5.808 5.569,8.92 3.104,11.475 0,11.475 -3.104,11.475 -5.568,8.92 -5.568,5.808 -5.568,2.602 -3.104,0 0,0 m 0,15.516 c 5.52,0 9.955,-4.459 9.955,-9.708 0,-5.343 -4.435,-9.803 -9.955,-9.803 -5.52,0 -9.954,4.46 -9.954,9.803 0,5.249 4.434,9.708 9.954,9.708"
             style="fill:#fab516;fill-opacity:1;fill-rule:nonzero;stroke:none"
             id="path62"
             inkscape:connector-curvature="0" /></g><g
           id="g64"
           transform="translate(208.2031,54.3104)"><path
             d="m 0,0 c 1.846,0 4.256,-1.256 4.256,-5.219 0,-4.688 -3.281,-7.635 -4.614,-8.748 -0.411,-0.289 -0.77,-0.338 -1.18,0.049 l -0.718,0.725 c -0.358,0.339 -0.256,0.773 0.103,1.063 0.512,0.338 3.486,2.562 3.486,5.896 -0.051,0 -0.718,-0.242 -1.538,-0.242 -1.897,0 -3.435,1.451 -3.435,3.239 C -3.64,-1.498 -2.102,0 0,0 m -3.845,10.343 c 0,1.932 1.641,3.479 3.692,3.479 2.05,0 3.691,-1.547 3.691,-3.479 0,-1.934 -1.641,-3.48 -3.691,-3.48 -2.051,0 -3.692,1.546 -3.692,3.48"
             style="fill:#242424;fill-opacity:1;fill-rule:nonzero;stroke:none"
             id="path66"
             inkscape:connector-curvature="0" /></g><g
           id="g68"
           transform="translate(47.9224,65.287)"><path
             d="m 0,0 c 4.874,1.057 6.715,5.162 6.715,11.949 0,6.747 -1.841,10.933 -6.715,11.99 -0.348,0.041 -0.646,0.407 -0.597,0.732 l 0.149,2.683 c 0,0.365 0.399,0.65 0.946,0.609 5.669,-0.244 12.335,-3.251 12.335,-16.014 0,-12.762 -6.666,-15.688 -12.335,-16.013 -0.547,0 -0.895,0.243 -0.946,0.65 l -0.149,2.642 C -0.646,-0.447 -0.448,-0.081 0,0"
             style="fill:#fab516;fill-opacity:1;fill-rule:nonzero;stroke:none"
             id="path70"
             inkscape:connector-curvature="0" /></g><g
           id="g72"
           transform="translate(37.8589,76.1366)"><path
             d="M 0,0 C 0,-3.648 -2.785,-5.135 -4.128,-5.629 V -5.81 C -3.681,-5.99 0,-7.791 0,-11.665 v -4.729 c 0,-4.594 2.786,-7.206 6.665,-7.971 0.348,-0.045 0.746,-0.316 0.696,-0.812 l -0.199,-2.837 c -0.05,-0.541 -0.447,-0.81 -0.995,-0.765 -5.123,0.179 -12.334,2.476 -12.334,12.385 v 5.72 c 0,1.937 -3.035,3.018 -3.482,3.108 -0.348,0.089 -0.696,0.315 -0.696,0.765 v 2.207 c 0,0.451 0.348,0.766 0.745,0.811 1.195,0.18 3.433,1.036 3.433,3.062 v 5.54 c 0,9.909 7.211,12.16 12.334,12.34 0.498,0.046 0.945,-0.315 0.995,-0.765 L 7.361,13.556 C 7.411,13.061 7.013,12.791 6.665,12.701 2.786,11.98 0,9.413 0,4.819 Z"
             style="fill:#242424;fill-opacity:1;fill-rule:nonzero;stroke:none"
             id="path74"
             inkscape:connector-curvature="0" /></g></g></g></g></svg>